<?xml version="1.0" encoding="iso-8859-1"?>
<!-- Generator: Adobe Illustrator 26.5.0, SVG Export Plug-In . SVG Version: 6.00 Build 0)  -->
<svg version="1.1" id="Calque_1" xmlns="http://www.w3.org/2000/svg" xmlns:xlink="http://www.w3.org/1999/xlink" x="0px" y="0px"
	 viewBox="0 0 460.941 97.995" style="enable-background:new 0 0 460.941 97.995;" xml:space="preserve">
<g>
	<path style="fill:#00457C;" d="M184.333,45.232c-17.687,0-30.212,11.831-32.956,26.432c-3.137,16.656,5.652,26.193,21.357,26.193
		c17.39,0,30.34-12.174,32.95-26.476C207.749,59.992,204.569,45.232,184.333,45.232z M194.153,69.966
		c-2.273,12.194-9.31,23.504-20.243,23.504c-10.657,0-12.933-10.125-11.149-19.678c3.091-16.437,10.437-24.137,20.307-24.137
		C193.717,49.655,195.947,60.507,194.153,69.966z"/>
	<path style="fill:#00457C;" d="M210.27,72.826c-3.24,17.259,8.643,25.031,23.637,25.031c6.239,0,12.852-1.469,19.584-3.297
		l3.814-20.326c-1.794,0.132-3.602,0.371-5.382,0.371c-1.786,0-3.509-0.239-5.268-0.371l-3.227,17.181
		c-1.893,1.023-4.646,2.055-8.2,2.055c-10.784,0-15.609-7.648-13.205-20.418c2.318-12.32,10.227-23.397,22.09-23.397
		c5.609,0,10.242,2.565,12.582,7.468h1c0.758-2.486,1.942-5.048,3.379-7.418c-4.729-3.143-10.169-4.473-16.283-4.473
		C228.386,45.232,213.712,54.558,210.27,72.826z"/>
	<path style="fill:#00457C;" d="M139.05,46.562c-1.805,0.136-3.617,0.37-5.396,0.37c-1.769,0-3.513-0.233-5.261-0.37l-9.402,49.981
		h26.915c0.057-1.024,0.05-2.129,0.241-3.16c0.195-1.031,0.617-2.114,0.95-3.152c-4.932,0.516-10.278,1.038-16.458,1.038
		L139.05,46.562z"/>
	<path style="fill:#00457C;" d="M277.133,46.932c-1.773,0-3.514-0.233-5.258-0.37L262.4,96.904c1.804-0.144,3.63-0.361,5.398-0.361
		c1.773,0,3.51,0.218,5.254,0.361l9.473-50.342C280.721,46.698,278.912,46.932,277.133,46.932z"/>
	<path style="fill:#00457C;" d="M413.385,45.232c-15.478,0-29.911,8.737-33.513,27.906c-2.832,15.037,6.863,24.72,22.045,24.72
		c4.758,0,9.979-0.873,14.667-3.152l2.743-6.312l-0.84-0.442c-3.793,3.166-9.341,5.519-13.746,5.519
		c-10.941,0-15.246-8.811-12.893-21.37c2.034-10.787,8.994-22.445,20.775-22.445c4.626,0,8.635,2.776,10.525,6.742h0.997
		c1.052-2.573,1.952-5.062,3.048-7.569C423.519,46.481,418.073,45.232,413.385,45.232z"/>
	<path style="fill:#00457C;" d="M366.883,46.562l-9.468,50.342c1.801-0.144,3.622-0.361,5.396-0.361c1.777,0,3.505,0.218,5.25,0.361
		l9.476-50.342c-1.806,0.136-3.619,0.37-5.398,0.37C370.364,46.932,368.635,46.698,366.883,46.562z"/>
	<path style="fill:#00457C;" d="M440.109,56.84c0.784-4.191,3.552-7.185,9.168-7.185c4.033,0,6.274,2.479,6.96,6.371h1.058
		c1.192-2.492,2.356-4.917,3.646-7.263c-1.27-1.54-5.446-3.53-10.562-3.53c-10.791,0-17.715,6.988-19.307,15.427
		c-3.319,17.68,18.641,13.417,16.431,25.162c-0.952,5.076-5.349,7.648-9.741,7.648c-4.911,0-8.173-3.014-8.271-8.07h-1.363
		c-1.02,3.153-2.381,6.232-3.811,9.306c2.91,2.199,6.929,3.152,10.839,3.152c11.005,0,20.09-6.741,21.863-16.133
		C460.179,64.917,438.241,66.753,440.109,56.84z"/>
	<path style="fill:#00457C;" d="M306.377,49.655c4.056,0,6.282,2.479,6.974,6.371h1.067c1.169-2.492,2.34-4.917,3.634-7.263
		c-1.273-1.54-5.448-3.53-10.562-3.53c-10.795,0-17.719,6.988-19.3,15.427c-3.337,17.68,18.637,13.417,16.428,25.162
		c-0.95,5.076-5.353,7.648-9.745,7.648c-4.903,0-8.172-3.014-8.281-8.07h-1.352c-1.018,3.153-2.386,6.232-3.813,9.306
		c2.929,2.199,6.936,3.152,10.844,3.152c11.004,0,20.085-6.741,21.855-16.133c3.16-16.808-18.774-14.972-16.909-24.885
		C298.011,52.648,300.769,49.655,306.377,49.655z"/>
	<path style="fill:#00457C;" d="M359.048,49.655c0.195-1.031,0.597-2.055,0.931-3.093h-36.58c-0.047,1.038-0.018,2.062-0.22,3.093
		c-0.21,1.091-0.605,2.122-0.951,3.146c3.79-0.508,8.367-1.024,13.408-1.024l-8.49,45.128c1.801-0.144,3.615-0.361,5.388-0.361
		c1.78,0,3.51,0.218,5.269,0.361l8.483-45.128c4.344,0,8.431,0.516,12.521,1.024C358.863,51.777,358.843,50.746,359.048,49.655z"/>
</g>
<path style="fill:#00457C;" d="M56.685,21.776L42.45,97.42h30.108c22.032,0,41.924-14.875,46.655-39.979
	c3.428-18.231-2.927-34.778-25.765-35.665H56.685z M71.599,28.221h10.533c15.156,0,23.186,8.222,19.256,29.105
	c-4.891,25.988-17.629,33.675-32.462,33.675h-9.129L71.599,28.221z"/>
<path style="fill:#E63329;" d="M119.206,19.939c-0.023-5.462-0.879-6.29-2.331-10.039L145.779,0l8.341,30.056
	c-3.027-0.179-6.197,0.191-10.111,2.393l-1.946-12.275C131.414,40.516,78.746,89.99,0,71.489c0.511-0.457,0.896-2.07,1.148-2.76
	c72.624,10.083,122.119-36.696,129.39-53.315L119.206,19.939z"/>
<path style="fill:#00457C;" d="M15.51,97.995c2.719-0.224,5.472-0.575,8.155-0.575c2.688,0,5.323,0.352,7.961,0.575l14.334-76.219
	c-2.734,0.218-5.471,0.551-8.167,0.551c-2.684,0-5.312-0.333-7.961-0.551L15.51,97.995z"/>
</svg>
